<?xml version="1.0" encoding="UTF-8" standalone="no"?>
<!DOCTYPE svg PUBLIC "-//W3C//DTD SVG 1.1//EN" "http://www.w3.org/Graphics/SVG/1.1/DTD/svg11.dtd">
<svg width="100%" height="100%" viewBox="0 0 438 308" version="1.1" xmlns="http://www.w3.org/2000/svg" xmlns:xlink="http://www.w3.org/1999/xlink" xml:space="preserve" xmlns:serif="http://www.serif.com/" style="fill-rule:evenodd;clip-rule:evenodd;stroke-linejoin:round;stroke-miterlimit:1.41421;">
    <g transform="matrix(1.37763,0,0,1.37763,67.8502,-4.40992)">
        <path d="M38,74C29.862,74.446 28.06,79.855 26.155,87C23.183,98.147 22,109.504 22,121C13.335,121.974 13.919,128.829 14.004,136C14.162,149.327 18.409,163.408 24.862,175C42.091,205.951 77.53,225.747 113,224.871C148.598,223.992 182.205,206.417 200.127,175C206.673,163.526 210.839,149.246 210.996,136C211.081,128.829 211.665,121.974 203,121C203,108.954 201.724,96.591 198.279,85C196.615,79.4 194.796,73.744 188,75C183.95,62.554 178.956,50.93 171.667,40C169.227,36.341 166.647,31.435 162.711,29.179C157.231,26.039 151.199,31.925 146.285,27.748C138.475,21.107 132.265,12.954 124,6.654C120.913,4.302 117.062,0.887 113,0.607C108.934,0.328 105.052,3.622 102,5.896C93.305,12.375 86.858,20.824 78.715,27.748C73.801,31.925 67.769,26.039 62.289,29.179C58.378,31.42 55.661,36.374 53.194,40C46.387,50.008 39.645,61.844 38,74Z" style="fill:rgb(188,161,111);fill-rule:nonzero;"/>
        <path d="M125,7L126,8L125,7Z" style="fill:rgb(208,208,208);fill-rule:nonzero;"/>
        <path d="M126,8L127,9L126,8Z" style="fill:rgb(166,166,166);fill-rule:nonzero;"/>
        <path d="M127,9L128,10L127,9Z" style="fill:rgb(118,118,118);fill-rule:nonzero;"/>
        <path d="M128,10L129,11L128,10Z" style="fill:rgb(67,67,67);fill-rule:nonzero;"/>
        <path d="M131,12L132,13L131,12Z" style="fill:rgb(208,208,208);fill-rule:nonzero;"/>
        <path d="M89,37C94.488,40.703 99.78,44.524 105,48.596C107.267,50.364 109.894,52.812 113,52.539C116.07,52.268 118.709,49.61 121,47.8C125.857,43.963 130.872,40.46 136,37C131.868,30.754 126.764,25.823 121,21.084C118.773,19.253 116.034,16.448 113,16.157C109.935,15.864 107.198,18.491 105,20.262C98.871,25.197 93.199,30.287 89,37Z" style="fill:rgb(253,247,226);fill-rule:nonzero;"/>
        <path d="M84,21L85,22L84,21Z" style="fill:rgb(106,106,106);fill-rule:nonzero;"/>
        <path d="M83,22L84,23L83,22Z" style="fill:rgb(125,125,125);fill-rule:nonzero;"/>
        <path d="M82,23L83,24L82,23Z" style="fill:rgb(146,146,146);fill-rule:nonzero;"/>
        <path d="M142,23L143,24L142,23M81,24L82,25L81,24Z" style="fill:rgb(179,179,179);fill-rule:nonzero;"/>
        <path d="M63,27L64,28L63,27Z" style="fill:rgb(197,197,197);fill-rule:nonzero;"/>
        <path d="M64,27L65,28L64,27Z" style="fill:rgb(118,118,118);fill-rule:nonzero;"/>
        <path d="M65.667,27.333C65.222,27.778 66.278,27.722 66.333,27.667C66.778,27.222 65.722,27.278 65.667,27.333Z" style="fill:rgb(42,42,42);fill-rule:nonzero;"/>
        <path d="M67,27L68,28L67,27Z" style="fill:rgb(101,101,101);fill-rule:nonzero;"/>
        <path d="M68,27L69,28L68,27Z" style="fill:rgb(179,179,179);fill-rule:nonzero;"/>
        <path d="M79,27L80,28L79,27Z" style="fill:rgb(54,54,54);fill-rule:nonzero;"/>
        <path d="M62,28L63,29L62,28Z" style="fill:rgb(67,67,67);fill-rule:nonzero;"/>
        <path d="M70,28L71,29L70,28Z" style="fill:rgb(118,118,118);fill-rule:nonzero;"/>
        <path d="M71,28L72,29L71,28Z" style="fill:rgb(208,208,208);fill-rule:nonzero;"/>
        <path d="M78,28L79,29L78,28Z" style="fill:rgb(125,125,125);fill-rule:nonzero;"/>
        <path d="M73,29L74,30L73,29Z" style="fill:rgb(179,179,179);fill-rule:nonzero;"/>
        <path d="M77,29L78,30L77,29Z" style="fill:rgb(191,191,191);fill-rule:nonzero;"/>
        <path d="M60,30L61,31L60,30Z" style="fill:rgb(67,67,67);fill-rule:nonzero;"/>
        <path d="M75,30L76,31L75,30M149,30L150,31L149,30Z" style="fill:rgb(131,131,131);fill-rule:nonzero;"/>
        <path d="M59,31L60,32L59,31M165,31L166,32L165,31Z" style="fill:rgb(118,118,118);fill-rule:nonzero;"/>
        <path d="M58,32L59,33L58,32Z" style="fill:rgb(166,166,166);fill-rule:nonzero;"/>
        <path d="M56,35L57,36L56,35Z" style="fill:rgb(100,100,100);fill-rule:nonzero;"/>
        <path d="M55,36L56,37L55,36Z" style="fill:rgb(173,173,173);fill-rule:nonzero;"/>
        <path d="M89,37L90,38L89,37M135,37L136,38L135,37Z" style="fill:rgb(166,166,166);fill-rule:nonzero;"/>
        <path d="M54,38L55,39L54,38Z" style="fill:rgb(54,54,54);fill-rule:nonzero;"/>
        <path d="M91,38L92,39L91,38M133,38L134,39L133,38Z" style="fill:rgb(208,208,208);fill-rule:nonzero;"/>
        <path d="M53,39L54,40L53,39Z" style="fill:rgb(146,146,146);fill-rule:nonzero;"/>
        <path d="M94,40L95,41L94,40M130,40L131,41L130,40Z" style="fill:rgb(191,191,191);fill-rule:nonzero;"/>
        <path d="M68,41L69,42L68,41Z" style="fill:rgb(81,81,81);fill-rule:nonzero;"/>
        <path d="M129,41L130,42L129,41Z" style="fill:rgb(100,100,100);fill-rule:nonzero;"/>
        <path d="M51,42L52,43L51,42Z" style="fill:rgb(152,152,152);fill-rule:nonzero;"/>
        <path d="M67,42L68,43L67,42Z" style="fill:rgb(146,146,146);fill-rule:nonzero;"/>
        <path d="M51,78C60.054,80.146 67.682,85.116 76,89C81.082,78.317 90.766,70.234 99,62C93.877,54.878 85.696,50.227 78,46.259C75.526,44.983 72.021,42.508 69.093,42.994C65.623,43.57 63.387,48.34 61.695,51C56.631,58.961 51.438,68.42 51,78Z" style="fill:rgb(253,247,226);fill-rule:nonzero;"/>
        <path d="M70,42L71,43L70,42Z" style="fill:rgb(125,125,125);fill-rule:nonzero;"/>
        <path d="M97,42L98,43L97,42M127,42L128,43L127,42Z" style="fill:rgb(191,191,191);fill-rule:nonzero;"/>
        <path d="M126,61C133.04,70.994 142.928,78.104 149,89C157.318,85.116 164.945,80.146 174,78C173.562,68.42 168.369,58.961 163.305,51C161.613,48.34 159.377,43.57 155.907,42.994C152.98,42.508 149.474,44.983 147,46.259C139.296,50.232 132.267,55.006 126,61Z" style="fill:rgb(253,247,226);fill-rule:nonzero;"/>
        <path d="M66,43L67,44L66,43Z" style="fill:rgb(67,67,67);fill-rule:nonzero;"/>
        <path d="M72,43L73,44L72,43Z" style="fill:rgb(146,146,146);fill-rule:nonzero;"/>
        <path d="M98,43L99,44L98,43M126,43L127,44L126,43Z" style="fill:rgb(106,106,106);fill-rule:nonzero;"/>
        <path d="M50,44L51,45L50,44Z" style="fill:rgb(67,67,67);fill-rule:nonzero;"/>
        <path d="M74,44L75,45L74,44M150,44L151,45L150,44Z" style="fill:rgb(152,152,152);fill-rule:nonzero;"/>
        <path d="M49,45L50,46L49,45Z" style="fill:rgb(179,179,179);fill-rule:nonzero;"/>
        <path d="M65,45L66,46L65,45Z" style="fill:rgb(186,186,186);fill-rule:nonzero;"/>
        <path d="M76,45L77,46L76,45Z" style="fill:rgb(156,156,156);fill-rule:nonzero;"/>
        <path d="M64,46L65,47L64,46Z" style="fill:rgb(100,100,100);fill-rule:nonzero;"/>
        <path d="M78,46L79,47L78,46Z" style="fill:rgb(156,156,156);fill-rule:nonzero;"/>
        <path d="M48,47L49,48L48,47M80,47L81,48L80,47Z" style="fill:rgb(131,131,131);fill-rule:nonzero;"/>
        <path d="M63,48L64,49L63,48Z" style="fill:rgb(191,191,191);fill-rule:nonzero;"/>
        <path d="M82,48L83,49L82,48Z" style="fill:rgb(82,82,82);fill-rule:nonzero;"/>
        <path d="M47,49L48,50L47,49Z" style="fill:rgb(90,90,90);fill-rule:nonzero;"/>
        <path d="M62,49L63,50L62,49Z" style="fill:rgb(100,100,100);fill-rule:nonzero;"/>
        <path d="M83,49L84,50L83,49Z" style="fill:rgb(191,191,191);fill-rule:nonzero;"/>
        <path d="M46,50L47,51L46,50Z" style="fill:rgb(208,208,208);fill-rule:nonzero;"/>
        <path d="M46,51L47,52L46,51Z" style="fill:rgb(54,54,54);fill-rule:nonzero;"/>
        <path d="M61,51L62,52L61,51Z" style="fill:rgb(173,173,173);fill-rule:nonzero;"/>
        <path d="M45,52L46,53L45,52Z" style="fill:rgb(186,186,186);fill-rule:nonzero;"/>
        <path d="M60,52L61,53L60,52Z" style="fill:rgb(61,61,61);fill-rule:nonzero;"/>
        <path d="M109,52L110,53L109,52M115,52L116,53L115,52M136,52L137,53L136,52Z" style="fill:rgb(166,166,166);fill-rule:nonzero;"/>
        <path d="M44,54L45,55L44,54Z" style="fill:rgb(179,179,179);fill-rule:nonzero;"/>
        <path d="M59,54L60,55L59,54Z" style="fill:rgb(118,118,118);fill-rule:nonzero;"/>
        <path d="M43,56L44,57L43,56Z" style="fill:rgb(186,186,186);fill-rule:nonzero;"/>
        <path d="M58,56L59,57L58,56Z" style="fill:rgb(152,152,152);fill-rule:nonzero;"/>
        <path d="M94,56L95,57L94,56M130,56L131,57L130,56Z" style="fill:rgb(54,54,54);fill-rule:nonzero;"/>
        <path d="M95,57L96,58L95,57M129,57L130,58L129,57Z" style="fill:rgb(106,106,106);fill-rule:nonzero;"/>
        <path d="M42,58L43,59L42,58Z" style="fill:rgb(197,197,197);fill-rule:nonzero;"/>
        <path d="M57,58L58,59L57,58Z" style="fill:rgb(173,173,173);fill-rule:nonzero;"/>
        <path d="M128,58L129,59L128,58Z" style="fill:rgb(152,152,152);fill-rule:nonzero;"/>
        <path d="M42,59L43,60L42,59Z" style="fill:rgb(82,82,82);fill-rule:nonzero;"/>
        <path d="M127,59L128,60L127,59Z" style="fill:rgb(191,191,191);fill-rule:nonzero;"/>
        <path d="M56,60L57,61L56,60Z" style="fill:rgb(179,179,179);fill-rule:nonzero;"/>
        <path d="M98,60L99,61L98,60M126,60L127,61L126,60Z" style="fill:rgb(208,208,208);fill-rule:nonzero;"/>
        <path d="M41,61L42,62L41,61Z" style="fill:rgb(125,125,125);fill-rule:nonzero;"/>
        <path d="M125,61L126,62L125,61Z" style="fill:rgb(146,146,146);fill-rule:nonzero;"/>
        <path d="M55,62L56,63L55,62Z" style="fill:rgb(173,173,173);fill-rule:nonzero;"/>
        <path d="M126,62L127,63L126,62Z" style="fill:rgb(131,131,131);fill-rule:nonzero;"/>
        <path d="M169,62L170,63L169,62M40,63L41,64L40,63Z" style="fill:rgb(173,173,173);fill-rule:nonzero;"/>
        <path d="M127,63L128,64L127,63Z" style="fill:rgb(100,100,100);fill-rule:nonzero;"/>
        <path d="M40,64L41,65L40,64Z" style="fill:rgb(64,64,64);fill-rule:nonzero;"/>
        <path d="M54,64L55,65L54,64Z" style="fill:rgb(152,152,152);fill-rule:nonzero;"/>
        <path d="M128,64L129,65L128,64Z" style="fill:rgb(81,81,81);fill-rule:nonzero;"/>
        <path d="M129,65L130,66L129,65Z" style="fill:rgb(54,54,54);fill-rule:nonzero;"/>
        <path d="M39,66L40,67L39,66Z" style="fill:rgb(146,146,146);fill-rule:nonzero;"/>
        <path d="M53,66L54,67L53,66M171,66L172,67L171,66Z" style="fill:rgb(118,118,118);fill-rule:nonzero;"/>
        <path d="M111,68L112,69L111,68Z" style="fill:rgb(100,100,100);fill-rule:nonzero;"/>
        <path d="M112,68C105.197,73.944 98.472,79.916 92.808,87C90.723,89.607 87.099,93.32 87.828,97C88.63,101.052 93.55,104.784 96,108C101.477,106.184 107.075,99.184 113,99.644C118.758,100.09 123.537,106.189 129,108C131.408,104.839 136.451,101.019 137.119,97C137.657,93.763 134.61,90.399 132.844,88C127.236,80.382 120.036,73.026 112,68Z" style="fill:rgb(253,247,226);fill-rule:nonzero;"/>
        <path d="M113,68L114,69L113,68Z" style="fill:rgb(100,100,100);fill-rule:nonzero;"/>
        <path d="M110,69L111,70L110,69M114,69L115,70L114,69Z" style="fill:rgb(152,152,152);fill-rule:nonzero;"/>
        <path d="M109,70L110,71L109,70M115,70L116,71L115,70Z" style="fill:rgb(197,197,197);fill-rule:nonzero;"/>
        <path d="M186,70L187,71L186,70M51,71L52,72L51,71Z" style="fill:rgb(92,92,92);fill-rule:nonzero;"/>
        <path d="M106,72L107,73L106,72Z" style="fill:rgb(54,54,54);fill-rule:nonzero;"/>
        <path d="M118,72L119,73L118,72Z" style="fill:rgb(47,47,47);fill-rule:nonzero;"/>
        <path d="M105,73L106,74L105,73M119,73L120,74L119,73Z" style="fill:rgb(81,81,81);fill-rule:nonzero;"/>
        <path d="M187,73L188,74L187,73M32,74L33,75L32,74Z" style="fill:rgb(131,131,131);fill-rule:nonzero;"/>
        <path d="M104,74L105,75L104,74M120,74L121,75L120,74Z" style="fill:rgb(106,106,106);fill-rule:nonzero;"/>
        <path d="M103,75L104,76L103,75M121,75L122,76L121,75M139,75L140,76L139,75Z" style="fill:rgb(131,131,131);fill-rule:nonzero;"/>
        <path d="M194,75L195,76L194,75M29,76L30,77L29,76M50.333,76.667C50.278,76.722 50.222,77.778 50.667,77.333C50.722,77.278 50.778,76.222 50.333,76.667Z" style="fill:rgb(197,197,197);fill-rule:nonzero;"/>
        <path d="M84,76L85,77L84,76M102,76L103,77L102,76M122,76L123,77L122,76Z" style="fill:rgb(146,146,146);fill-rule:nonzero;"/>
        <path d="M39,89C36.653,100.378 35,111.358 35,123C43.887,124.197 52.523,127.172 61,130C64.231,131.078 69.374,134.066 72.816,133.187C75.589,132.478 77.371,129.083 79.015,126.999C84.217,120.403 87.218,117.053 80.826,110.015C71.064,99.267 53.548,90.269 39,89Z" style="fill:rgb(253,247,226);fill-rule:nonzero;"/>
        <path d="M190,123C190,111.344 188.214,100.415 186,89C171.337,90.198 154.059,99.364 144.094,110.015C137.602,116.954 140.847,120.483 145.985,126.999C147.629,129.083 149.411,132.478 152.184,133.187C155.839,134.12 161.596,130.812 165,129.586C173,126.706 181.562,124.136 190,123Z" style="fill:rgb(253,247,226);fill-rule:nonzero;"/>
        <path d="M50,91L51,92L50,91M89,91L90,92L89,91Z" style="fill:rgb(131,131,131);fill-rule:nonzero;"/>
        <path d="M186,91L187,92L186,91M24,92L25,93L24,92Z" style="fill:rgb(173,173,173);fill-rule:nonzero;"/>
        <path d="M88,92L89,93L88,92Z" style="fill:rgb(47,47,47);fill-rule:nonzero;"/>
        <path d="M87,94L88,95L87,94Z" style="fill:rgb(146,146,146);fill-rule:nonzero;"/>
        <path d="M62,96L63,97L62,96Z" style="fill:rgb(54,54,54);fill-rule:nonzero;"/>
        <path d="M86,96L87,97L86,96Z" style="fill:rgb(191,191,191);fill-rule:nonzero;"/>
        <path d="M63,97L64,98L63,97Z" style="fill:rgb(186,186,186);fill-rule:nonzero;"/>
        <path d="M86,97L87,98L86,97M138,97L139,98L138,97Z" style="fill:rgb(82,82,82);fill-rule:nonzero;"/>
        <path d="M65,98L66,99L65,98Z" style="fill:rgb(166,166,166);fill-rule:nonzero;"/>
        <path d="M87,98L88,99L87,98M137,98L138,99L137,98Z" style="fill:rgb(54,54,54);fill-rule:nonzero;"/>
        <path d="M67,99L68,100L67,99Z" style="fill:rgb(131,131,131);fill-rule:nonzero;"/>
        <path d="M88,99L89,100L88,99Z" style="fill:rgb(47,47,47);fill-rule:nonzero;"/>
        <path d="M69,100L70,101L69,100Z" style="fill:rgb(54,54,54);fill-rule:nonzero;"/>
        <path d="M89,100L90,101L89,100Z" style="fill:rgb(47,47,47);fill-rule:nonzero;"/>
        <path d="M70,101L71,102L70,101Z" style="fill:rgb(156,156,156);fill-rule:nonzero;"/>
        <path d="M73,103L74,104L73,103Z" style="fill:rgb(106,106,106);fill-rule:nonzero;"/>
        <path d="M74,104L75,105L74,104Z" style="fill:rgb(173,173,173);fill-rule:nonzero;"/>
        <path d="M78,107L79,108L78,107Z" style="fill:rgb(61,61,61);fill-rule:nonzero;"/>
        <path d="M79,108L80,109L79,108Z" style="fill:rgb(81,81,81);fill-rule:nonzero;"/>
        <path d="M80,109L81,110L80,109Z" style="fill:rgb(67,67,67);fill-rule:nonzero;"/>
        <path d="M81,110L82,111L81,110Z" style="fill:rgb(54,54,54);fill-rule:nonzero;"/>
        <path d="M83,113L84,114L83,113Z" style="fill:rgb(208,208,208);fill-rule:nonzero;"/>
        <path d="M84,114L85,115L84,114Z" style="fill:rgb(146,146,146);fill-rule:nonzero;"/>
        <path d="M111,114L112,115L111,114Z" style="fill:rgb(166,166,166);fill-rule:nonzero;"/>
        <path d="M86,141C95.279,144.884 104.047,150.887 112,157C121.108,151.812 129.243,145.084 139,141C135.821,132.78 128.638,126.437 122,120.921C119.524,118.863 116.398,115.483 113,115.157C109.575,114.829 106.417,118.097 104,120.084C97.021,125.821 89.335,132.378 86,141Z" style="fill:rgb(253,247,226);fill-rule:nonzero;"/>
        <path d="M113,114L114,115L113,114Z" style="fill:rgb(166,166,166);fill-rule:nonzero;"/>
        <path d="M140,114L141,115L140,114Z" style="fill:rgb(179,179,179);fill-rule:nonzero;"/>
        <path d="M85,115L86,116L85,115Z" style="fill:rgb(67,67,67);fill-rule:nonzero;"/>
        <path d="M109,115L110,116L109,115Z" style="fill:rgb(54,54,54);fill-rule:nonzero;"/>
        <path d="M115,115L116,116L115,115Z" style="fill:rgb(47,47,47);fill-rule:nonzero;"/>
        <path d="M139,115L140,116L139,115Z" style="fill:rgb(106,106,106);fill-rule:nonzero;"/>
        <path d="M108,116L109,117L108,116Z" style="fill:rgb(125,125,125);fill-rule:nonzero;"/>
        <path d="M116,116L117,117L116,116Z" style="fill:rgb(118,118,118);fill-rule:nonzero;"/>
        <path d="M86,117L87,118L86,117Z" style="fill:rgb(179,179,179);fill-rule:nonzero;"/>
        <path d="M107,117L108,118L107,117Z" style="fill:rgb(191,191,191);fill-rule:nonzero;"/>
        <path d="M117,117L118,118L117,117Z" style="fill:rgb(179,179,179);fill-rule:nonzero;"/>
        <path d="M138,117L139,118L138,117Z" style="fill:rgb(186,186,186);fill-rule:nonzero;"/>
        <path d="M86,118L87,119L86,118M138,118L139,119L138,118Z" style="fill:rgb(106,106,106);fill-rule:nonzero;"/>
        <path d="M85,119L86,120L85,119Z" style="fill:rgb(100,100,100);fill-rule:nonzero;"/>
        <path d="M104,119L105,120L104,119Z" style="fill:rgb(90,90,90);fill-rule:nonzero;"/>
        <path d="M120,119L121,120L120,119Z" style="fill:rgb(82,82,82);fill-rule:nonzero;"/>
        <path d="M139,119L140,120L139,119Z" style="fill:rgb(100,100,100);fill-rule:nonzero;"/>
        <path d="M84,120L85,121L84,120Z" style="fill:rgb(118,118,118);fill-rule:nonzero;"/>
        <path d="M103,120L104,121L103,120M121,120L122,121L121,120Z" style="fill:rgb(146,146,146);fill-rule:nonzero;"/>
        <path d="M140,120L141,121L140,120Z" style="fill:rgb(118,118,118);fill-rule:nonzero;"/>
        <path d="M83,121L84,122L83,121Z" style="fill:rgb(131,131,131);fill-rule:nonzero;"/>
        <path d="M102,121L103,122L102,121Z" style="fill:rgb(179,179,179);fill-rule:nonzero;"/>
        <path d="M122,121L123,122L122,121Z" style="fill:rgb(173,173,173);fill-rule:nonzero;"/>
        <path d="M141,121L142,122L141,121Z" style="fill:rgb(131,131,131);fill-rule:nonzero;"/>
        <path d="M82,122L83,123L82,122Z" style="fill:rgb(166,166,166);fill-rule:nonzero;"/>
        <path d="M101,122L102,123L101,122M123,122L124,123L123,122Z" style="fill:rgb(208,208,208);fill-rule:nonzero;"/>
        <path d="M142,122L143,123L142,122Z" style="fill:rgb(166,166,166);fill-rule:nonzero;"/>
        <path d="M81,123L82,124L81,123M143,123L144,124L143,123Z" style="fill:rgb(197,197,197);fill-rule:nonzero;"/>
        <path d="M42,124L43,125L42,124M182,124L183,125L182,124Z" style="fill:rgb(166,166,166);fill-rule:nonzero;"/>
        <path d="M97,125L98,126L97,125Z" style="fill:rgb(54,54,54);fill-rule:nonzero;"/>
        <path d="M127,125L128,126L127,125Z" style="fill:rgb(47,47,47);fill-rule:nonzero;"/>
        <path d="M79,126L80,127L79,126Z" style="fill:rgb(54,54,54);fill-rule:nonzero;"/>
        <path d="M96,126L97,127L96,126Z" style="fill:rgb(61,61,61);fill-rule:nonzero;"/>
        <path d="M128,126L129,127L128,126Z" style="fill:rgb(47,47,47);fill-rule:nonzero;"/>
        <path d="M145,126L146,127L145,126Z" style="fill:rgb(61,61,61);fill-rule:nonzero;"/>
        <path d="M78,127L79,128L78,127Z" style="fill:rgb(131,131,131);fill-rule:nonzero;"/>
        <path d="M95,127L96,128L95,127Z" style="fill:rgb(61,61,61);fill-rule:nonzero;"/>
        <path d="M129,127L130,128L129,127Z" style="fill:rgb(47,47,47);fill-rule:nonzero;"/>
        <path d="M146,127L147,128L146,127Z" style="fill:rgb(131,131,131);fill-rule:nonzero;"/>
        <path d="M77,128L78,129L77,128Z" style="fill:rgb(191,191,191);fill-rule:nonzero;"/>
        <path d="M94,128L95,129L94,128Z" style="fill:rgb(54,54,54);fill-rule:nonzero;"/>
        <path d="M147,128L148,129L147,128Z" style="fill:rgb(197,197,197);fill-rule:nonzero;"/>
        <path d="M167,128L168,129L167,128Z" style="fill:rgb(208,208,208);fill-rule:nonzero;"/>
        <path d="M93,129L94,130L93,129Z" style="fill:rgb(47,47,47);fill-rule:nonzero;"/>
        <path d="M165,129L166,130L165,129Z" style="fill:rgb(131,131,131);fill-rule:nonzero;"/>
        <path d="M62,130L63,131L62,130Z" style="fill:rgb(152,152,152);fill-rule:nonzero;"/>
        <path d="M76,130L77,131L76,130Z" style="fill:rgb(64,64,64);fill-rule:nonzero;"/>
        <path d="M148,130L149,131L148,130Z" style="fill:rgb(67,67,67);fill-rule:nonzero;"/>
        <path d="M162,130L163,131L162,130Z" style="fill:rgb(146,146,146);fill-rule:nonzero;"/>
        <path d="M64,131L65,132L64,131Z" style="fill:rgb(64,64,64);fill-rule:nonzero;"/>
        <path d="M65,131L66,132L65,131Z" style="fill:rgb(179,179,179);fill-rule:nonzero;"/>
        <path d="M75,131L76,132L75,131M149,131L150,132L149,131Z" style="fill:rgb(166,166,166);fill-rule:nonzero;"/>
        <path d="M159,131L160,132L159,131Z" style="fill:rgb(173,173,173);fill-rule:nonzero;"/>
        <path d="M160,131L161,132L160,131Z" style="fill:rgb(61,61,61);fill-rule:nonzero;"/>
        <path d="M67,132L68,133L67,132Z" style="fill:rgb(106,106,106);fill-rule:nonzero;"/>
        <path d="M68,132L69,133L68,132M91,132L92,133L91,132Z" style="fill:rgb(208,208,208);fill-rule:nonzero;"/>
        <path d="M133,132L134,133L133,132M156,132L157,133L156,132Z" style="fill:rgb(197,197,197);fill-rule:nonzero;"/>
        <path d="M157,132L158,133L157,132Z" style="fill:rgb(106,106,106);fill-rule:nonzero;"/>
        <path d="M70,133L71,134L70,133Z" style="fill:rgb(166,166,166);fill-rule:nonzero;"/>
        <path d="M74,133L75,134L74,133Z" style="fill:rgb(81,81,81);fill-rule:nonzero;"/>
        <path d="M90,133L91,134L90,133Z" style="fill:rgb(179,179,179);fill-rule:nonzero;"/>
        <path d="M134,133L135,134L134,133Z" style="fill:rgb(166,166,166);fill-rule:nonzero;"/>
        <path d="M150,133L151,134L150,133Z" style="fill:rgb(90,90,90);fill-rule:nonzero;"/>
        <path d="M154,133L155,134L154,133M72.667,134.333C72.222,134.778 73.278,134.722 73.333,134.667C73.778,134.222 72.722,134.278 72.667,134.333Z" style="fill:rgb(166,166,166);fill-rule:nonzero;"/>
        <path d="M89,134L90,135L89,134Z" style="fill:rgb(121,121,121);fill-rule:nonzero;"/>
        <path d="M135,134L136,135L135,134Z" style="fill:rgb(101,101,101);fill-rule:nonzero;"/>
        <path d="M151.667,134.333C151.222,134.778 152.278,134.722 152.333,134.667C152.778,134.222 151.722,134.278 151.667,134.333Z" style="fill:rgb(131,131,131);fill-rule:nonzero;"/>
        <path d="M27,135C29.148,162.221 43.89,189.735 70,201C73.961,194.219 77.556,187.744 83.039,182C88.436,176.347 96.472,170.969 100,164C92.612,159.903 85.649,154.956 78,151.32C61.616,143.533 44.768,138.446 27,135Z" style="fill:rgb(253,247,226);fill-rule:nonzero;"/>
        <path d="M88,135L89,136L88,135Z" style="fill:rgb(67,67,67);fill-rule:nonzero;"/>
        <path d="M136,135L137,136L136,135Z" style="fill:rgb(47,47,47);fill-rule:nonzero;"/>
        <path d="M125,164C128.528,170.969 136.564,176.347 141.961,182C147.444,187.744 151.039,194.219 155,201C180.852,188.913 195.817,162.656 198,135C180.334,138.426 163.236,143.346 147,151.259C139.346,154.99 132.411,159.874 125,164Z" style="fill:rgb(253,247,226);fill-rule:nonzero;"/>
        <path d="M36,136L37,137L36,136M188,136L189,137L188,136Z" style="fill:rgb(106,106,106);fill-rule:nonzero;"/>
        <path d="M87,137L88,138L87,137Z" style="fill:rgb(197,197,197);fill-rule:nonzero;"/>
        <path d="M137,137L138,138L137,137Z" style="fill:rgb(179,179,179);fill-rule:nonzero;"/>
        <path d="M185,137L186,138L185,137M43,138L44,139L43,138Z" style="fill:rgb(179,179,179);fill-rule:nonzero;"/>
        <path d="M86,138L87,139L86,138Z" style="fill:rgb(118,118,118);fill-rule:nonzero;"/>
        <path d="M138,138L139,139L138,138Z" style="fill:rgb(101,101,101);fill-rule:nonzero;"/>
        <path d="M48,139L49,140L48,139M176,139L177,140L176,139Z" style="fill:rgb(67,67,67);fill-rule:nonzero;"/>
        <path d="M85,140L86,141L85,140M139,140L140,141L139,140Z" style="fill:rgb(90,90,90);fill-rule:nonzero;"/>
        <path d="M87,141L88,142L87,141M137,141L138,142L137,141Z" style="fill:rgb(131,131,131);fill-rule:nonzero;"/>
        <path d="M89,142L90,143L89,142M135,142L136,143L135,142Z" style="fill:rgb(146,146,146);fill-rule:nonzero;"/>
        <path d="M167,142L168,143L167,142Z" style="fill:rgb(100,100,100);fill-rule:nonzero;"/>
        <path d="M91,143L92,144L91,143M133,143L134,144L133,143Z" style="fill:rgb(166,166,166);fill-rule:nonzero;"/>
        <path d="M164,143L165,144L164,143Z" style="fill:rgb(54,54,54);fill-rule:nonzero;"/>
        <path d="M165,143L166,144L165,143Z" style="fill:rgb(173,173,173);fill-rule:nonzero;"/>
        <path d="M62,144L63,145L62,144Z" style="fill:rgb(131,131,131);fill-rule:nonzero;"/>
        <path d="M93,144L94,145L93,144M131,144L132,145L131,144Z" style="fill:rgb(197,197,197);fill-rule:nonzero;"/>
        <path d="M162,144L163,145L162,144Z" style="fill:rgb(131,131,131);fill-rule:nonzero;"/>
        <path d="M64,145L65,146L64,145Z" style="fill:rgb(186,186,186);fill-rule:nonzero;"/>
        <path d="M65,145L66,146L65,145M94,145L95,146L94,145M130,145L131,146L130,145M159,145L160,146L159,145Z" style="fill:rgb(81,81,81);fill-rule:nonzero;"/>
        <path d="M160,145L161,146L160,145Z" style="fill:rgb(191,191,191);fill-rule:nonzero;"/>
        <path d="M67,146L68,147L67,146M96,146L97,147L96,146Z" style="fill:rgb(131,131,131);fill-rule:nonzero;"/>
        <path d="M128,146L129,147L128,146Z" style="fill:rgb(125,125,125);fill-rule:nonzero;"/>
        <path d="M157,146L158,147L157,146Z" style="fill:rgb(131,131,131);fill-rule:nonzero;"/>
        <path d="M69,147L70,148L69,147Z" style="fill:rgb(166,166,166);fill-rule:nonzero;"/>
        <path d="M98,147L99,148L98,147M126,147L127,148L126,147Z" style="fill:rgb(179,179,179);fill-rule:nonzero;"/>
        <path d="M155,147L156,148L155,147Z" style="fill:rgb(173,173,173);fill-rule:nonzero;"/>
        <path d="M71,148L72,149L71,148Z" style="fill:rgb(197,197,197);fill-rule:nonzero;"/>
        <path d="M72,148L73,149L72,148Z" style="fill:rgb(61,61,61);fill-rule:nonzero;"/>
        <path d="M99,148L100,149L99,148M125,148L126,149L125,148M152,148L153,149L152,148Z" style="fill:rgb(67,67,67);fill-rule:nonzero;"/>
        <path d="M153,148L154,149L153,148Z" style="fill:rgb(197,197,197);fill-rule:nonzero;"/>
        <path d="M73,149L74,150L73,149Z" style="fill:rgb(208,208,208);fill-rule:nonzero;"/>
        <path d="M74,149L75,150L74,149Z" style="fill:rgb(90,90,90);fill-rule:nonzero;"/>
        <path d="M101,149L102,150L101,149M123,149L124,150L123,149Z" style="fill:rgb(146,146,146);fill-rule:nonzero;"/>
        <path d="M150,149L151,150L150,149Z" style="fill:rgb(100,100,100);fill-rule:nonzero;"/>
        <path d="M76,150L77,151L76,150Z" style="fill:rgb(106,106,106);fill-rule:nonzero;"/>
        <path d="M121,150L122,151L121,150Z" style="fill:rgb(208,208,208);fill-rule:nonzero;"/>
        <path d="M148,150L149,151L148,150Z" style="fill:rgb(118,118,118);fill-rule:nonzero;"/>
        <path d="M78,151L79,152L78,151Z" style="fill:rgb(118,118,118);fill-rule:nonzero;"/>
        <path d="M104,151L105,152L104,151Z" style="fill:rgb(131,131,131);fill-rule:nonzero;"/>
        <path d="M120,151L121,152L120,151M146,151L147,152L146,151Z" style="fill:rgb(125,125,125);fill-rule:nonzero;"/>
        <path d="M80,152L81,153L80,152Z" style="fill:rgb(106,106,106);fill-rule:nonzero;"/>
        <path d="M118,152L119,153L118,152Z" style="fill:rgb(208,208,208);fill-rule:nonzero;"/>
        <path d="M144,152L145,153L144,152M195,152L196,153L195,152Z" style="fill:rgb(121,121,121);fill-rule:nonzero;"/>
        <path d="M82,153L83,154L82,153Z" style="fill:rgb(92,92,92);fill-rule:nonzero;"/>
        <path d="M107,153L108,154L107,153Z" style="fill:rgb(146,146,146);fill-rule:nonzero;"/>
        <path d="M117,153L118,154L117,153Z" style="fill:rgb(131,131,131);fill-rule:nonzero;"/>
        <path d="M142,153L143,154L142,153Z" style="fill:rgb(101,101,101);fill-rule:nonzero;"/>
        <path d="M83,154L84,155L83,154Z" style="fill:rgb(208,208,208);fill-rule:nonzero;"/>
        <path d="M84,154L85,155L84,154M108,154L109,155L108,154Z" style="fill:rgb(61,61,61);fill-rule:nonzero;"/>
        <path d="M116,154L117,155L116,154Z" style="fill:rgb(54,54,54);fill-rule:nonzero;"/>
        <path d="M140,154L141,155L140,154Z" style="fill:rgb(67,67,67);fill-rule:nonzero;"/>
        <path d="M85,155L86,156L85,155Z" style="fill:rgb(186,186,186);fill-rule:nonzero;"/>
        <path d="M110,155L111,156L110,155Z" style="fill:rgb(179,179,179);fill-rule:nonzero;"/>
        <path d="M114,155L115,156L114,155Z" style="fill:rgb(173,173,173);fill-rule:nonzero;"/>
        <path d="M139,155L140,156L139,155Z" style="fill:rgb(197,197,197);fill-rule:nonzero;"/>
        <path d="M87,156L88,157L87,156Z" style="fill:rgb(156,156,156);fill-rule:nonzero;"/>
        <path d="M111,156L112,157L111,156M113,156L114,157L113,156Z" style="fill:rgb(100,100,100);fill-rule:nonzero;"/>
        <path d="M137,156L138,157L137,156Z" style="fill:rgb(166,166,166);fill-rule:nonzero;"/>
        <path d="M89,157L90,158L89,157Z" style="fill:rgb(118,118,118);fill-rule:nonzero;"/>
        <path d="M135,157L136,158L135,157Z" style="fill:rgb(125,125,125);fill-rule:nonzero;"/>
        <path d="M90,158L91,159L90,158Z" style="fill:rgb(208,208,208);fill-rule:nonzero;"/>
        <path d="M91,158L92,159L91,158Z" style="fill:rgb(54,54,54);fill-rule:nonzero;"/>
        <path d="M133,158L134,159L133,158Z" style="fill:rgb(64,64,64);fill-rule:nonzero;"/>
        <path d="M92,159L93,160L92,159Z" style="fill:rgb(166,166,166);fill-rule:nonzero;"/>
        <path d="M132,159L133,160L132,159Z" style="fill:rgb(173,173,173);fill-rule:nonzero;"/>
        <path d="M94,160L95,161L94,160Z" style="fill:rgb(90,90,90);fill-rule:nonzero;"/>
        <path d="M130,160L131,161L130,160Z" style="fill:rgb(100,100,100);fill-rule:nonzero;"/>
        <path d="M95,161L96,162L95,161Z" style="fill:rgb(186,186,186);fill-rule:nonzero;"/>
        <path d="M129,161L130,162L129,161Z" style="fill:rgb(197,197,197);fill-rule:nonzero;"/>
        <path d="M192,161L193,162L192,161Z" style="fill:rgb(54,54,54);fill-rule:nonzero;"/>
        <path d="M206,161L207,162L206,161Z" style="fill:rgb(197,197,197);fill-rule:nonzero;"/>
        <path d="M97,162L98,163L97,162Z" style="fill:rgb(106,106,106);fill-rule:nonzero;"/>
        <path d="M127,162L128,163L127,162Z" style="fill:rgb(118,118,118);fill-rule:nonzero;"/>
        <path d="M191,162L192,163L191,162Z" style="fill:rgb(208,208,208);fill-rule:nonzero;"/>
        <path d="M98,163L99,164L98,163M126,163L127,164L126,163Z" style="fill:rgb(197,197,197);fill-rule:nonzero;"/>
        <path d="M191,163L192,164L191,163Z" style="fill:rgb(90,90,90);fill-rule:nonzero;"/>
        <path d="M205,163L206,164L205,163Z" style="fill:rgb(131,131,131);fill-rule:nonzero;"/>
        <path d="M100,164L101,165L100,164Z" style="fill:rgb(118,118,118);fill-rule:nonzero;"/>
        <path d="M124,164L125,165L124,164Z" style="fill:rgb(121,121,121);fill-rule:nonzero;"/>
        <path d="M100,165L101,166L100,165M124,165L125,166L124,165Z" style="fill:rgb(186,186,186);fill-rule:nonzero;"/>
        <path d="M190,165L191,166L190,165Z" style="fill:rgb(101,101,101);fill-rule:nonzero;"/>
        <path d="M204,165L205,166L204,165Z" style="fill:rgb(81,81,81);fill-rule:nonzero;"/>
        <path d="M99,166L100,167L99,166M125,166L126,167L125,166Z" style="fill:rgb(118,118,118);fill-rule:nonzero;"/>
        <path d="M204,166L205,167L204,166Z" style="fill:rgb(191,191,191);fill-rule:nonzero;"/>
        <path d="M98,167L99,168L98,167M126,167L127,168L126,167Z" style="fill:rgb(54,54,54);fill-rule:nonzero;"/>
        <path d="M189,167L190,168L189,167Z" style="fill:rgb(92,92,92);fill-rule:nonzero;"/>
        <path d="M96,168L97,169L96,168M128,168L129,169L128,168Z" style="fill:rgb(208,208,208);fill-rule:nonzero;"/>
        <path d="M203,168L204,169L203,168Z" style="fill:rgb(166,166,166);fill-rule:nonzero;"/>
        <path d="M95,169L96,170L95,169M129,169L130,170L129,169Z" style="fill:rgb(173,173,173);fill-rule:nonzero;"/>
        <path d="M188,169L189,170L188,169Z" style="fill:rgb(67,67,67);fill-rule:nonzero;"/>
        <path d="M94,170L95,171L94,170M130,170L131,171L130,170Z" style="fill:rgb(131,131,131);fill-rule:nonzero;"/>
        <path d="M187,170L188,171L187,170Z" style="fill:rgb(179,179,179);fill-rule:nonzero;"/>
        <path d="M202,170L203,171L202,170Z" style="fill:rgb(152,152,152);fill-rule:nonzero;"/>
        <path d="M93,171L94,172L93,171Z" style="fill:rgb(90,90,90);fill-rule:nonzero;"/>
        <path d="M131,171L132,172L131,171Z" style="fill:rgb(92,92,92);fill-rule:nonzero;"/>
        <path d="M92,172L93,173L92,172Z" style="fill:rgb(54,54,54);fill-rule:nonzero;"/>
        <path d="M132,172L133,173L132,172Z" style="fill:rgb(61,61,61);fill-rule:nonzero;"/>
        <path d="M186,172L187,173L186,172Z" style="fill:rgb(121,121,121);fill-rule:nonzero;"/>
        <path d="M201,172L202,173L201,172Z" style="fill:rgb(152,152,152);fill-rule:nonzero;"/>
        <path d="M111,173L112,174L111,173Z" style="fill:rgb(47,47,47);fill-rule:nonzero;"/>
        <path d="M112,173L113,174L112,173Z" style="fill:rgb(197,197,197);fill-rule:nonzero;"/>
        <path d="M113,173L114,174L113,173Z" style="fill:rgb(47,47,47);fill-rule:nonzero;"/>
        <path d="M185,173L186,174L185,173Z" style="fill:rgb(208,208,208);fill-rule:nonzero;"/>
        <path d="M110,174L111,175L110,174Z" style="fill:rgb(125,125,125);fill-rule:nonzero;"/>
        <path d="M83,207C102.498,212.492 122.484,212.497 142,207C140.01,196.679 130.62,187.916 123,181.289C120.35,178.985 116.698,175.133 113,174.792C109.253,174.447 105.62,178.233 103,180.439C95.034,187.148 84.931,196.302 83,207Z" style="fill:rgb(253,247,226);fill-rule:nonzero;"/>
        <path d="M114,174L115,175L114,174Z" style="fill:rgb(125,125,125);fill-rule:nonzero;"/>
        <path d="M200,174L201,175L200,174Z" style="fill:rgb(166,166,166);fill-rule:nonzero;"/>
        <path d="M109,175L110,176L109,175Z" style="fill:rgb(197,197,197);fill-rule:nonzero;"/>
        <path d="M115,175L116,176L115,175Z" style="fill:rgb(191,191,191);fill-rule:nonzero;"/>
        <path d="M184,175L185,176L184,175Z" style="fill:rgb(118,118,118);fill-rule:nonzero;"/>
        <path d="M107,176L108,177L107,176Z" style="fill:rgb(54,54,54);fill-rule:nonzero;"/>
        <path d="M117,176L118,177L117,176Z" style="fill:rgb(47,47,47);fill-rule:nonzero;"/>
        <path d="M183,176L184,177L183,176Z" style="fill:rgb(191,191,191);fill-rule:nonzero;"/>
        <path d="M199,176L200,177L199,176Z" style="fill:rgb(197,197,197);fill-rule:nonzero;"/>
        <path d="M26,177L27,178L26,177Z" style="fill:rgb(54,54,54);fill-rule:nonzero;"/>
        <path d="M106,177L107,178L106,177M118,177L119,178L118,177Z" style="fill:rgb(118,118,118);fill-rule:nonzero;"/>
        <path d="M198,177L199,178L198,177Z" style="fill:rgb(90,90,90);fill-rule:nonzero;"/>
        <path d="M42,178L43,179L42,178Z" style="fill:rgb(82,82,82);fill-rule:nonzero;"/>
        <path d="M105,178L106,179L105,178Z" style="fill:rgb(173,173,173);fill-rule:nonzero;"/>
        <path d="M119,178L120,179L119,178Z" style="fill:rgb(166,166,166);fill-rule:nonzero;"/>
        <path d="M182,178L183,179L182,178Z" style="fill:rgb(61,61,61);fill-rule:nonzero;"/>
        <path d="M27,179L28,180L27,179Z" style="fill:rgb(121,121,121);fill-rule:nonzero;"/>
        <path d="M43,179L44,180L43,179Z" style="fill:rgb(146,146,146);fill-rule:nonzero;"/>
        <path d="M104,179L105,180L104,179M120,179L121,180L120,179Z" style="fill:rgb(208,208,208);fill-rule:nonzero;"/>
        <path d="M181,179L182,180L181,179Z" style="fill:rgb(121,121,121);fill-rule:nonzero;"/>
        <path d="M197,179L198,180L197,179Z" style="fill:rgb(156,156,156);fill-rule:nonzero;"/>
        <path d="M44,180L45,181L44,180Z" style="fill:rgb(179,179,179);fill-rule:nonzero;"/>
        <path d="M180,180L181,181L180,180Z" style="fill:rgb(156,156,156);fill-rule:nonzero;"/>
        <path d="M196,180L197,181L196,180Z" style="fill:rgb(61,61,61);fill-rule:nonzero;"/>
        <path d="M28,181L29,182L28,181Z" style="fill:rgb(197,197,197);fill-rule:nonzero;"/>
        <path d="M101,181L102,182L101,181Z" style="fill:rgb(81,81,81);fill-rule:nonzero;"/>
        <path d="M123,181L124,182L123,181Z" style="fill:rgb(67,67,67);fill-rule:nonzero;"/>
        <path d="M141,181L142,182L141,181Z" style="fill:rgb(47,47,47);fill-rule:nonzero;"/>
        <path d="M179,181L180,182L179,181Z" style="fill:rgb(208,208,208);fill-rule:nonzero;"/>
        <path d="M29,182L30,183L29,182Z" style="fill:rgb(118,118,118);fill-rule:nonzero;"/>
        <path d="M82,182L83,183L82,182Z" style="fill:rgb(64,64,64);fill-rule:nonzero;"/>
        <path d="M100,182L101,183L100,182Z" style="fill:rgb(106,106,106);fill-rule:nonzero;"/>
        <path d="M124,182L125,183L124,182Z" style="fill:rgb(100,100,100);fill-rule:nonzero;"/>
        <path d="M142,182L143,183L142,182Z" style="fill:rgb(81,81,81);fill-rule:nonzero;"/>
        <path d="M195,182L196,183L195,182Z" style="fill:rgb(156,156,156);fill-rule:nonzero;"/>
        <path d="M194,183L195,184L194,183Z" style="fill:rgb(67,67,67);fill-rule:nonzero;"/>
        <path d="M144,184L145,185L144,184M31,185L32,186L31,185Z" style="fill:rgb(156,156,156);fill-rule:nonzero;"/>
        <path d="M32,186L33,187L32,186Z" style="fill:rgb(92,92,92);fill-rule:nonzero;"/>
    </g>
</svg>
